<?xml version="1.0" encoding="UTF-8"?>
<svg version="1.1" xmlns="http://www.w3.org/2000/svg" width="1024" height="1024">
<path d="M0 0 C1.54815566 -0.01186512 1.54815566 -0.01186512 3.1275872 -0.02396995 C6.55492347 -0.04885253 9.98225757 -0.06687891 13.40963745 -0.08467102 C15.87938613 -0.10077447 18.34913302 -0.11715442 20.81887817 -0.13378906 C43.27167086 -0.27784913 65.7250029 -0.35363982 88.17816353 -0.41270733 C91.17622034 -0.42073458 94.17427672 -0.42890318 97.17233276 -0.43721008 C98.28991318 -0.44029649 98.28991318 -0.44029649 99.43007098 -0.44344524 C111.51596536 -0.47791182 123.60133196 -0.55062824 135.68694617 -0.63811769 C148.11633115 -0.72734722 160.54544187 -0.77864034 172.97514045 -0.79400951 C179.94590051 -0.80365282 186.91570425 -0.83029477 193.88614273 -0.90032005 C200.43804149 -0.96611995 206.9886661 -0.98113063 213.54096222 -0.96182442 C215.9431993 -0.96297808 218.3454991 -0.98123454 220.7474556 -1.01796722 C239.84682948 -1.29496502 239.84682948 -1.29496502 244.53924179 2.36269188 C246.83643043 4.87007122 248.50279176 7.23734142 250.17086792 10.18754578 C251.13887949 11.42221504 252.12385646 12.6441959 253.13961792 13.83988953 C253.98673864 14.93233615 254.83051786 16.02738239 255.67086792 17.12504578 C256.61143385 18.33663609 257.55284975 19.54756701 258.49508667 20.75785828 C258.94932007 21.34212585 259.40355347 21.92639343 259.87155151 22.52836609 C261.71139137 24.87777451 263.59243409 27.19163305 265.48336792 29.50004578 C266.18848511 30.36242859 266.89360229 31.2248114 267.62008667 32.11332703 C269.68848844 34.60617878 271.77731138 37.07742911 273.87789917 39.54301453 C274.52396118 40.30895935 275.17002319 41.07490417 275.83566284 41.86405945 C277.12817729 43.39611326 278.42897401 44.9212232 279.73849487 46.43876648 C280.62154297 47.49003723 280.62154297 47.49003723 281.52243042 48.56254578 C282.32414673 49.50227234 282.32414673 49.50227234 283.14205933 50.46098328 C283.48156616 51.0307489 283.821073 51.60051453 284.17086792 52.18754578 C283.84086792 53.17754578 283.51086792 54.16754578 283.17086792 55.18754578 C282.58007765 55.18298913 281.98928738 55.17843249 281.38059437 55.17373776 C246.35004355 54.90508441 211.31967028 54.69924946 176.28830326 54.57476182 C172.0802111 54.5597537 167.87212103 54.5442218 163.66403198 54.52836609 C162.40742251 54.5236445 162.40742251 54.5236445 161.12542699 54.51882753 C147.56831854 54.46663948 134.01182195 54.37204116 120.45507623 54.26171222 C106.54009343 54.14941402 92.62543061 54.08282399 78.71001327 54.05848384 C70.12599278 54.04203379 61.54370167 53.99012331 52.96021371 53.89254817 C47.07067471 53.82901589 41.18202699 53.8099659 35.29217036 53.82552925 C31.89472901 53.8332038 28.50272919 53.81503451 25.10541344 53.75708008 C10.91613154 52.79883432 10.91613154 52.79883432 -1.70529556 57.88031769 C-4.66413433 60.99877303 -7.82913208 64.72816831 -7.82913208 69.18754578 C-8.54585083 69.75344421 -9.26256958 70.31934265 -10.00100708 70.90238953 C-13.26817967 73.54230108 -15.55832911 76.41986067 -18.07913208 79.75004578 C-19.03905131 80.99692412 -20.00000443 82.24300713 -20.96194458 83.48832703 C-21.43921997 84.10788269 -21.91649536 84.72743835 -22.40823364 85.36576843 C-25.24337908 89.0007951 -28.20255231 92.53351032 -31.14944458 96.07817078 C-32.86030208 98.07712216 -32.86030208 98.07712216 -33.82913208 100.18754578 C-33.20645226 100.18662398 -32.58377245 100.18570219 -31.94222355 100.18475246 C-16.81202518 100.16269696 -1.68183172 100.14613409 13.44837856 100.1357336 C20.76514194 100.13057071 28.08189462 100.12352815 35.39865112 100.11210632 C41.7736981 100.10215927 48.14873733 100.0956923 54.52379185 100.09345728 C57.90134806 100.09215021 61.27888208 100.08906459 64.6564312 100.08181572 C68.42094135 100.07460965 72.18540477 100.07355465 75.94992065 100.07402039 C77.07776474 100.07042511 78.20560883 100.06682983 79.36763 100.06312561 C80.89686096 100.06518761 80.89686096 100.06518761 82.45698547 100.06729126 C83.34835929 100.06636947 84.2397331 100.06544767 85.15811825 100.06449795 C87.17086792 100.18754578 87.17086792 100.18754578 88.17086792 101.18754578 C88.2051825 103.04939295 88.16643004 104.91260146 88.10029602 106.77359009 C88.0609494 107.98795242 88.02160278 109.20231476 87.98106384 110.45347595 C87.95756929 111.11413811 87.93407475 111.77480026 87.90986824 112.45548248 C87.78236181 116.06947421 87.67351798 119.6840239 87.56452942 123.2986145 C87.54098322 124.07223513 87.51743702 124.84585575 87.49317729 125.64291942 C87.17292035 136.48651161 87.03002817 147.3336912 86.88253689 158.18077755 C86.75764109 166.98910544 86.57017445 175.7876498 86.23361206 184.59062195 C85.85349966 194.75734773 85.63410291 204.91564464 85.66696167 215.08988953 C85.66952579 215.90885948 85.67208991 216.72782943 85.67473173 217.57161665 C85.82014783 237.49909937 86.96696993 253.467296 101.51512146 268.50872803 C107.28706738 273.93830687 113.44027834 278.75862661 120.09043884 283.06231689 C121.61525124 284.11430519 121.61525124 284.11430519 123.17086792 285.18754578 C123.17086792 285.84754578 123.17086792 286.50754578 123.17086792 287.18754578 C124.16086792 287.51754578 125.15086792 287.84754578 126.17086792 288.18754578 C126.17086792 288.84754578 126.17086792 289.50754578 126.17086792 290.18754578 C126.74836792 290.45567078 127.32586792 290.72379578 127.92086792 291.00004578 C130.17086792 292.18754578 130.17086792 292.18754578 132.29586792 293.81254578 C134.05214718 295.384667 134.05214718 295.384667 136.17086792 295.18754578 C135.84086792 294.52754578 135.51086792 293.86754578 135.17086792 293.18754578 C135.07317285 290.67078907 135.03630243 288.1817211 135.04388428 285.66470337 C135.04232429 284.87965803 135.0407643 284.09461269 135.03915703 283.28577811 C135.0351511 280.64095466 135.0383351 277.99618806 135.04147339 275.35136414 C135.04011918 273.46108974 135.03833914 271.57081562 135.03616333 269.68054199 C135.03159166 264.5361227 135.03337739 259.39172338 135.03654242 254.24730372 C135.03906701 248.87456504 135.03672823 243.50182811 135.03515625 238.12908936 C135.033335 229.1061726 135.03573986 220.08326402 135.04049683 211.06034851 C135.045941 200.61297925 135.04417548 190.1656295 135.03867042 179.71826071 C135.03413998 170.76371243 135.03348835 161.80917004 135.03610909 152.85462099 C135.03767203 147.49966491 135.03786513 142.144718 135.0345726 136.7897625 C135.03169483 131.75754694 135.03366784 126.72535666 135.03946686 121.69314384 C135.04079489 119.84073427 135.04039961 117.98832259 135.03820419 116.13591385 C135.03549442 113.61838151 135.03887165 111.10093155 135.04388428 108.58340454 C135.04165356 107.84061955 135.03942283 107.09783456 135.03712451 106.33254093 C135.05671796 101.30169574 135.05671796 101.30169574 136.17086792 100.18754578 C137.73974427 100.09163379 139.31294584 100.06566582 140.88475037 100.06729126 C141.90423767 100.0659166 142.92372498 100.06454193 143.97410583 100.06312561 C145.10194992 100.06672089 146.22979401 100.07031616 147.39181519 100.07402039 C148.57214325 100.07387436 149.75247131 100.07372833 150.96856689 100.07357788 C154.214289 100.07415683 157.45996847 100.07918591 160.70568204 100.08615184 C164.09429824 100.09238616 167.4829152 100.09298924 170.87153625 100.09417725 C177.29242596 100.09729033 183.71329873 100.10550341 190.13418096 100.11552674 C197.44240617 100.12668858 204.75063216 100.1321985 212.05886376 100.13722217 C227.09620794 100.14768605 242.13353624 100.16528505 257.17086792 100.18754578 C256.21432049 101.4672858 255.25717346 102.74657768 254.29977417 104.02568054 C253.76682739 104.73813431 253.23388062 105.45058807 252.68478394 106.18463135 C250.90073549 108.54493161 249.05408042 110.84316934 247.17086792 113.12504578 C246.41032104 114.04930359 245.64977417 114.9735614 244.86618042 115.92582703 C243.96802659 117.01330096 243.06956069 118.10051719 242.17086792 119.18754578 C240.41226826 121.31471732 238.65401769 123.44217165 236.89694214 125.57060242 C235.66799174 127.05905553 234.43785765 128.54653216 233.20651245 130.03300476 C229.52383808 134.49259553 225.95515385 139.004225 222.60055542 143.71879578 C213.86069137 152.69745393 197.6947792 146.79617355 185.17086792 147.18754578 C185.17086792 181.83754578 185.17086792 216.48754578 185.17086792 252.18754578 C188.14086792 248.55754578 191.11086792 244.92754578 194.17086792 241.18754578 C195.99729728 239.01505611 197.8293946 236.84729844 199.67086792 234.68754578 C203.7221057 229.91939329 207.71441135 225.10839409 211.66696167 220.25785828 C219.47752057 210.68048028 227.3297775 201.14001621 235.33395386 191.72367859 C239.68266989 186.60128439 243.93128103 181.40027627 248.17086792 176.18754578 C249.75349862 174.24947179 251.33682689 172.31196723 252.92086792 170.37504578 C253.65821167 169.47141296 254.39555542 168.56778015 255.15524292 167.63676453 C256.8047428 165.63243037 258.47931261 163.65616618 260.17086792 161.68754578 C262.33137398 159.2822032 262.33137398 159.2822032 263.17086792 156.18754578 C264.27458644 155.04933605 265.38569041 153.91765231 266.52633667 152.81645203 C272.918657 146.48486633 278.42348543 139.70114693 283.44430542 132.24223328 C284.01407104 131.5641864 284.58383667 130.88613953 285.17086792 130.18754578 C286.16086792 130.18754578 287.15086792 130.18754578 288.17086792 130.18754578 C288.38047335 137.70683017 288.53984766 145.22580768 288.63717747 152.74735832 C288.68392265 156.24117423 288.74718544 159.73297541 288.849823 163.22563171 C288.96739347 167.25218172 289.01017638 171.27665589 289.04977417 175.30473328 C289.09622574 176.5436734 289.14267731 177.78261353 289.1905365 179.05909729 C289.1944863 185.91811961 288.42537715 189.6814721 283.76974487 194.87016296 C282.25447528 196.32790422 280.72369466 197.76987846 279.17086792 199.18754578 C277.69425085 200.96417393 276.23113657 202.7523498 274.79586792 204.56254578 C271.11579783 209.11454885 267.24563908 213.42006825 263.26168823 217.70219421 C259.43792116 221.83635806 255.88244764 226.15252328 252.35055542 230.53910828 C249.48376701 234.02241032 246.44806879 237.33517522 243.40914917 240.66801453 C241.14239634 243.21959494 238.99546705 245.83926109 236.85836792 248.50004578 C232.80396445 253.52320052 228.49594219 258.25628467 224.06808472 262.9485321 C221.29682548 265.83182295 221.29682548 265.83182295 219.17086792 269.18754578 C218.51086792 269.18754578 217.85086792 269.18754578 217.17086792 269.18754578 C216.95559448 269.71090515 216.74032104 270.23426453 216.51852417 270.77348328 C214.63701226 274.14384374 212.13729411 276.92066641 209.60836792 279.81254578 C208.80363037 280.74187927 208.80363037 280.74187927 207.9826355 281.68998718 C204.09744713 286.16341979 200.15294656 290.58176756 196.17477417 294.97270203 C190.86278139 300.84385194 185.74037145 306.87049839 180.63571167 312.92167664 C177.05279743 317.16190112 173.43424101 321.36984235 169.79586792 325.56254578 C169.25526733 326.1855658 168.71466675 326.80858582 168.15768433 327.45048523 C165.3660249 330.66531101 162.57037325 333.87662553 159.77243042 337.08598328 C153.44344764 344.35456038 147.21340464 351.6773128 141.17086792 359.18754578 C139.23336792 358.87504578 139.23336792 358.87504578 137.17086792 358.18754578 C136.84086792 357.19754578 136.51086792 356.20754578 136.17086792 355.18754578 C134.85143436 354.49377542 133.51553664 353.83104266 132.17086792 353.18754578 C130.80766977 351.99440349 129.49278343 350.74498958 128.21603394 349.45976257 C127.06948082 348.31298286 127.06948082 348.31298286 125.89976501 347.14303589 C125.08301804 346.31596634 124.26627106 345.48889679 123.42477417 344.63676453 C122.57664658 343.78580704 121.72851898 342.93484955 120.85469055 342.05810547 C118.14285387 339.33507644 115.43803944 336.60518999 112.73336792 333.87504578 C110.91546936 332.04711342 109.09711517 330.21963407 107.27828979 328.3926239 C103.934388 325.03239005 100.59310724 321.66959837 97.25509644 318.30351257 C94.23437743 315.25740165 91.20591818 312.21936611 88.17086792 309.18754578 C87.53922729 308.54430359 86.90758667 307.9010614 86.25680542 307.23832703 C85.69219604 306.66469421 85.12758667 306.0910614 84.54586792 305.50004578 C83.69121948 304.627995 83.69121948 304.627995 82.81930542 303.73832703 C81.04703818 301.9850268 81.04703818 301.9850268 78.17086792 300.18754578 C78.17086792 299.52754578 78.17086792 298.86754578 78.17086792 298.18754578 C77.18086792 297.85754578 76.19086792 297.52754578 75.17086792 297.18754578 C75.17086792 296.52754578 75.17086792 295.86754578 75.17086792 295.18754578 C74.28246468 294.78319054 74.28246468 294.78319054 73.37611389 294.3706665 C71.17563885 293.19010539 69.67839587 291.98361693 67.88693237 290.25761414 C67.26981888 289.66617111 66.65270538 289.07472809 66.01689148 288.46536255 C65.36258652 287.82583145 64.70828156 287.18630035 64.03414917 286.52738953 C63.35410324 285.86348709 62.67405731 285.19958466 61.97340393 284.51556396 C60.53909539 283.10888047 59.10783178 281.69908645 57.67941284 280.28642273 C56.21889205 278.84895852 54.7494766 277.42047447 53.27120972 276.00126648 C51.13050924 273.94606982 49.01771809 271.86548157 46.90914917 269.77738953 C46.24877151 269.15202805 45.58839386 268.52666656 44.90800476 267.88235474 C44.30034775 267.26884659 43.69269073 266.65533844 43.06661987 266.02323914 C42.53019363 265.49854538 41.9937674 264.97385162 41.44108582 264.43325806 C37.90309243 258.17817755 39.03143636 249.31982209 39.05734253 242.34355164 C39.0571965 241.29860535 39.05705048 240.25365906 39.05690002 239.17704773 C39.057592 235.75213992 39.06535069 232.32728774 39.07321167 228.90238953 C39.07507839 226.51628652 39.0765011 224.13018312 39.07749939 221.74407959 C39.08130454 215.48551868 39.09111763 209.22698125 39.10220337 202.96842957 C39.11246065 196.57337257 39.11700624 190.17831176 39.12203979 183.7832489 C39.13274178 171.25133789 39.14959986 158.71944309 39.17086792 146.18754578 C38.57982741 146.21847289 37.98878691 146.24940001 37.37983608 146.28126431 C23.55982309 146.98731972 9.82168705 147.29090893 -4.01272583 147.06645203 C-5.81830599 147.04203309 -7.6238941 147.01819643 -9.42948914 146.99490356 C-14.09325509 146.93322923 -18.75687292 146.86385799 -23.42050171 146.79264832 C-28.2148486 146.72088374 -33.00929733 146.65672293 -37.80374146 146.59184265 C-47.14565028 146.46434343 -56.48741995 146.32867876 -65.82913208 146.18754578 C-66.02958195 135.09568834 -66.21327256 124.00369105 -66.37572002 112.91120815 C-66.4516788 107.76022251 -66.53335334 102.60946116 -66.62820435 97.45878601 C-66.71957134 92.48577914 -66.79577514 87.51274754 -66.8615818 82.53933907 C-66.88929958 80.64430676 -66.92243063 78.74934547 -66.96112633 76.85450554 C-67.01449741 74.19524248 -67.04841054 71.53637525 -67.07791138 68.87675476 C-67.10811623 67.70825989 -67.10811623 67.70825989 -67.13893127 66.51615906 C-67.18043685 59.42235967 -65.23564216 54.18684938 -60.20413208 49.00004578 C-57.11935623 45.67453425 -54.33017841 42.27909217 -51.64163208 38.62504578 C-47.49969084 33.01200127 -43.14262774 27.6071453 -38.72171021 22.21220398 C-34.28266771 16.78169689 -29.99185191 11.2532613 -25.75491333 5.66410828 C-22.34794631 1.28273486 -22.34794631 1.28273486 -19.60828125 0.78007668 C-13.06446177 0.28626784 -6.56194974 0.02721573 0 0 Z " fill="#45ACF9" transform="translate(400.8291320800781,354.8124542236328)"/>
<path d="M0 0 C0.66 0 1.32 0 2 0 C0.79618552 2.49361571 -0.45428722 4.68143083 -2 7 C-1.37732018 6.99907821 -0.75464037 6.99815641 -0.11309147 6.99720669 C15.0171069 6.97515118 30.14730036 6.95858832 45.27751064 6.94818783 C52.59427402 6.94302494 59.9110267 6.93598238 67.2277832 6.92456055 C73.60283018 6.91461349 79.97786941 6.90814652 86.35292393 6.90591151 C89.73048014 6.90460443 93.10801416 6.90151881 96.48556328 6.89426994 C100.25007343 6.88706387 104.01453685 6.88600887 107.77905273 6.88647461 C108.90689682 6.88287933 110.03474091 6.87928406 111.19676208 6.87557983 C112.21624939 6.8769545 113.23573669 6.87832916 114.28611755 6.87974548 C115.17749137 6.87882369 116.06886518 6.8779019 116.98725033 6.87695217 C119 7 119 7 120 8 C120.03431458 9.86184717 119.99556212 11.72505568 119.9294281 13.58604431 C119.87040817 15.40758781 119.87040817 15.40758781 119.81019592 17.26593018 C119.78670137 17.92659233 119.76320683 18.58725449 119.73900032 19.26793671 C119.61149389 22.88192843 119.50265006 26.49647812 119.3936615 30.11106873 C119.3583422 31.27149966 119.3583422 31.27149966 119.32230937 32.45537364 C119.00205243 43.29896583 118.85916025 54.14614542 118.71166897 64.99323177 C118.58677317 73.80155967 118.39930653 82.60010402 118.06274414 91.40307617 C117.68263174 101.56980196 117.46323499 111.72809886 117.49609375 121.90234375 C117.49993993 123.13079868 117.49993993 123.13079868 117.50386381 124.38407087 C117.64927991 144.3115536 118.79610201 160.27975023 133.34425354 175.32118225 C139.11619946 180.75076109 145.26941042 185.57108083 151.91957092 189.87477112 C153.44438332 190.92675941 153.44438332 190.92675941 155 192 C155 192.66 155 193.32 155 194 C155.99 194.33 156.98 194.66 158 195 C158 195.66 158 196.32 158 197 C158.5775 197.268125 159.155 197.53625 159.75 197.8125 C162 199 162 199 164.125 200.625 C165.88127926 202.19712122 165.88127926 202.19712122 168 202 C167.67 201.34 167.34 200.68 167 200 C166.90446803 197.48093107 166.86984563 194.98966276 166.87974548 192.47042847 C166.87846385 191.29180211 166.87846385 191.29180211 166.87715632 190.08936512 C166.87550211 187.44220369 166.88102194 184.79510487 166.88647461 182.14794922 C166.88675652 180.25605267 166.88659867 178.36415601 166.8860321 176.47225952 C166.88574428 171.3237723 166.8916386 166.17530821 166.89860606 161.02682638 C166.90484209 155.65095225 166.9054436 150.27507763 166.90663147 144.89920044 C166.90974405 134.71362971 166.91795645 124.52806968 166.92798096 114.34250367 C166.94123028 100.58268747 166.9466426 86.82286837 166.95248318 73.06304741 C166.96189639 51.37535693 166.9818158 29.687689 167 8 C205.94 8 244.88 8 285 8 C285 8.33 285 8.66 285 9 C246.72 9 208.44 9 169 9 C169 74.34 169 139.68 169 207 C165 207 165 207 162.75 205.125 C161 203 161 203 161 201 C160.443125 200.773125 159.88625 200.54625 159.3125 200.3125 C156.32038397 198.61427198 154.38399465 196.49235804 152 194 C151.34257813 193.36320313 150.68515625 192.72640625 150.0078125 192.0703125 C148.95207031 191.04550781 148.95207031 191.04550781 147.875 190 C147.21242188 189.360625 146.54984375 188.72125 145.8671875 188.0625 C144 186 144 186 142.71112919 183.63951206 C140.73601758 180.59279242 138.63191356 178.91085217 135.75474548 176.70530701 C126.05742973 168.82376612 117.23715153 161.08558313 115.71386892 148.12017375 C115.10750629 140.61537481 115.35491651 133.09297298 115.66793942 125.58050466 C115.81404753 121.46691192 115.82540462 117.35271003 115.8525238 113.23692322 C115.92336219 105.48146436 116.1111185 97.73367162 116.34356207 89.9815554 C116.60276067 81.14068761 116.72761444 72.2994067 116.84255707 63.45567143 C117.08147505 45.29947116 117.48465579 27.15035631 118 9 C117.37308825 9.00699732 116.74617649 9.01399464 116.10026741 9.02120399 C100.86133234 9.19060212 85.62232615 9.34890095 70.3831501 9.49477577 C63.01366563 9.56558809 55.64425548 9.64018658 48.27490234 9.72363281 C41.85339553 9.79633666 35.43186238 9.86200347 29.01019752 9.91914403 C25.60850392 9.94966042 22.20692929 9.98375176 18.8053627 10.02626419 C15.01235289 10.0719021 11.21942948 10.10510081 7.42626953 10.13525391 C5.72587021 10.16006584 5.72587021 10.16006584 3.99111938 10.18537903 C2.96184326 10.19104385 1.93256714 10.19670868 0.87210083 10.20254517 C-0.02572554 10.2117631 -0.9235519 10.22098103 -1.84858513 10.23047829 C-4 10 -4 10 -6 8 C-5.04956626 6.66102417 -4.08940853 5.32894573 -3.125 4 C-2.59132813 3.2575 -2.05765625 2.515 -1.5078125 1.75 C-1.01023437 1.1725 -0.51265625 0.595 0 0 Z " fill="#2DACE7" transform="translate(369,448)"/>
<path d="M0 0 C1.03028676 -0.00085442 2.06057353 -0.00170885 3.1220811 -0.00258917 C6.54281613 -0.00422427 9.96350112 0.00124488 13.38423157 0.00672913 C15.84887694 0.00701145 18.3135224 0.00685238 20.77816772 0.00628662 C26.06819987 0.00605958 31.35821671 0.00887909 36.64824486 0.01452446 C44.29656204 0.02268117 51.94487328 0.02525894 59.59319434 0.02651245 C72.00466327 0.02869644 84.4161256 0.03533876 96.82759094 0.04481506 C108.87804634 0.05400612 120.92849993 0.06107866 132.97895813 0.06532288 C133.72281707 0.0655856 134.466676 0.06584832 135.23307612 0.06611901 C138.96511694 0.06742413 142.69715778 0.06868781 146.42919862 0.06993091 C177.34821506 0.08028317 208.26722328 0.09795844 239.18623352 0.12025452 C239.51623352 0.78025452 239.84623352 1.44025452 240.18623352 2.12025452 C239.02142692 2.12660243 239.02142692 2.12660243 237.83308887 2.13307858 C218.89323446 2.2366152 199.95341579 2.34528615 181.01362324 2.45959377 C171.85429411 2.51475083 162.69496108 2.56820293 153.53559875 2.61756897 C145.54751851 2.66062658 137.55946491 2.70695688 129.57142609 2.75713307 C125.34619304 2.78356145 121.12096467 2.80840806 116.89570045 2.82932854 C112.90911994 2.84911912 108.92258933 2.87332459 104.93605423 2.90074539 C103.48215975 2.90999867 102.02825444 2.91771427 100.57434273 2.92367363 C92.7079206 2.95687647 84.92656406 3.19130188 77.08996296 3.89763641 C71.94624649 4.29198597 66.80304215 4.24299344 61.64717102 4.21791077 C60.51848602 4.21649582 59.38980103 4.21508087 58.22691345 4.21362305 C54.67165814 4.20809208 51.11646929 4.19556052 47.56123352 4.18275452 C45.14066153 4.17772989 42.72008853 4.17316869 40.29951477 4.16908264 C35.01087104 4.15931448 29.7222608 4.14515374 24.43363953 4.12698364 C22.68451059 4.12174645 20.93537029 4.12025452 19.18623352 4.12025452 C17.16779499 4.02698946 15.14936822 3.93345649 13.13102722 3.83810425 C9.68547983 3.69120106 6.23925971 3.60151137 2.79170227 3.51600647 C0.98141155 3.46081073 -0.82839129 3.38582624 -2.63700867 3.29042053 C-13.41801037 2.44011462 -13.41801037 2.44011462 -22.95732117 6.51234436 C-25.20914192 9.27992236 -27.01712623 12.04531119 -28.81376648 15.12025452 C-29.79041397 16.14307399 -30.78538649 17.14946381 -31.81376648 18.12025452 C-32.28169617 18.9078717 -32.74962585 19.69548889 -33.23173523 20.50697327 C-34.94048595 23.3295763 -36.87430259 25.52521454 -39.12626648 27.93275452 C-42.40711076 31.5152248 -45.43373998 35.13428313 -48.28642273 39.06166077 C-50.06048853 41.45279293 -51.93269129 43.7499704 -53.81376648 46.05775452 C-61.13851062 54.26976617 -61.13851062 54.26976617 -64.25126648 64.37025452 C-63.88177561 67.97804746 -63.88177561 67.97804746 -63.25126648 70.93275452 C-62.81376648 73.12025452 -62.81376648 73.12025452 -63.81376648 76.12025452 C-63.86932752 77.96007435 -63.86209915 79.80205869 -63.81962585 81.64222717 C-63.79630188 82.77415497 -63.77297791 83.90608276 -63.74894714 85.0723114 C-63.71877502 86.29727325 -63.68860291 87.52223511 -63.65751648 88.78431702 C-63.61854248 90.67698807 -63.61854248 90.67698807 -63.57878113 92.6078949 C-63.48142226 97.33560203 -63.37515809 102.06307337 -63.26695251 106.7905426 C-63.16145402 111.41334505 -63.06478322 116.03627938 -62.97001648 120.65931702 C-62.93984436 121.87213348 -62.90967224 123.08494995 -62.87858582 124.33451843 C-62.74935707 130.71086349 -62.93334792 136.80131172 -63.81376648 143.12025452 C-62.61743591 143.08472473 -61.42110535 143.04919495 -60.18852234 143.0125885 C-26.69692202 142.04778921 6.69391736 142.26892984 40.18623352 143.12025452 C40.18623352 143.45025452 40.18623352 143.78025452 40.18623352 144.12025452 C31.54342112 145.28899847 22.89276185 145.47343821 14.18623352 145.68275452 C13.35349915 145.70393341 12.52076477 145.7251123 11.66279602 145.74693298 C-14.15639334 146.38690046 -39.98894354 146.21196907 -65.81376648 146.12025452 C-66.01421635 135.02839708 -66.19790696 123.93639979 -66.36035442 112.84391689 C-66.4363132 107.69293125 -66.51798774 102.5421699 -66.61283875 97.39149475 C-66.70420574 92.41848788 -66.78040954 87.44545628 -66.8462162 82.47204781 C-66.87393398 80.5770155 -66.90706503 78.68205421 -66.94576073 76.78721428 C-66.99913181 74.12795122 -67.03304493 71.46908399 -67.06254578 68.8094635 C-67.09275063 67.64096863 -67.09275063 67.64096863 -67.12356567 66.4488678 C-67.16507125 59.35506841 -65.22027656 54.11955812 -60.18876648 48.93275452 C-57.10399063 45.60724299 -54.31481281 42.21180091 -51.62626648 38.55775452 C-47.48432524 32.94471001 -43.12726214 27.53985404 -38.7063446 22.14491272 C-34.26730211 16.71440563 -29.97648631 11.18597004 -25.73954773 5.59681702 C-22.33306129 1.21606164 -22.33306129 1.21606164 -19.59237546 0.71041971 C-13.0498806 0.21237366 -6.56074421 -0.02031518 0 0 Z " fill="#5263E6" transform="translate(400.8137664794922,354.87974548339844)"/>
<path d="M0 0 C39.93 0 79.86 0 121 0 C115.375 5.625 115.375 5.625 112 8 C112.66 6.35 113.32 4.7 114 3 C113.38345551 3.07064667 112.76691101 3.14129333 112.13168335 3.21408081 C101.59137786 4.2642211 91.05825824 4.14497698 80.4765625 4.1328125 C78.40058379 4.13348728 76.32460515 4.13445876 74.24862671 4.13571167 C69.92013794 4.13717847 65.59166993 4.13506567 61.26318359 4.13037109 C55.72186458 4.12465292 50.18059379 4.12797243 44.6392765 4.13394356 C40.36188392 4.13755844 36.08450276 4.13640667 31.80710983 4.13381577 C29.76341115 4.13315018 27.71971141 4.13396202 25.67601395 4.13629532 C22.8238576 4.13883941 19.97177944 4.13495739 17.11962891 4.12939453 C16.28108368 4.13141876 15.44253845 4.13344299 14.57858276 4.13552856 C13.79674622 4.13270874 13.01490967 4.12988892 12.2093811 4.12698364 C11.53730936 4.12660662 10.86523762 4.12622959 10.17280006 4.12584114 C7.40468025 3.96552112 4.72686651 3.49025716 2 3 C2.00515373 3.75625829 2.01030746 4.51251657 2.01561737 5.29169178 C2.14215579 23.87203299 2.26735735 42.4523828 2.39115143 61.0327425 C2.45105312 70.01882166 2.51137334 79.00489761 2.57275391 87.9909668 C2.62638208 95.8422589 2.67914865 103.69355628 2.73096704 111.54486054 C2.75831791 115.68473529 2.7860411 119.82460662 2.81480408 123.96447182 C2.8834309 133.87409493 2.94334517 143.78371396 2.98909378 153.69347048 C3.00037886 156.08012476 3.01281378 158.46677165 3.02523804 160.85342026 C3.04542451 164.88157631 3.05948173 168.90971648 3.06938839 172.93791044 C3.07384076 174.45081229 3.07999312 175.96371029 3.08801365 177.47659743 C3.1266726 185.05096471 3.05864034 192.48582591 2 200 C1.67 200 1.34 200 1 200 C1.00092179 198.98140459 1.00184359 197.96280918 1.00279331 196.91334724 C1.0249652 172.16078086 1.0414126 147.40821576 1.05181217 122.65564156 C1.05697463 110.68562594 1.06401639 98.71561688 1.07543945 86.74560547 C1.0853878 76.31597097 1.09185379 65.88634122 1.09408849 55.45670211 C1.09539534 49.93121305 1.09847958 44.40573756 1.10573006 38.88025284 C1.11249264 33.68473054 1.11461647 28.48922746 1.11310768 23.29370117 C1.1133839 21.38204723 1.11538762 19.47039267 1.11920547 17.55874252 C1.12414642 14.95825593 1.12299678 12.35784287 1.12025452 9.75735474 C1.12316736 8.99277266 1.1260802 8.22819058 1.12908131 7.44043934 C1.18866817 3.59318415 1.18866817 3.59318415 0 0 Z " fill="#3DD9FE" transform="translate(537,455)"/>
<path d="M0 0 C0 4.31618166 -2.13270348 5.92789659 -5 9 C-5.66 9 -6.32 9 -7 9 C-7.32291016 9.78503906 -7.32291016 9.78503906 -7.65234375 10.5859375 C-9.53385566 13.95629796 -12.03357381 16.73312063 -14.5625 19.625 C-15.0989917 20.24455566 -15.6354834 20.86411133 -16.18823242 21.50244141 C-20.07342079 25.97587402 -24.01792136 30.39422179 -27.99609375 34.78515625 C-33.30808653 40.65630617 -38.43049647 46.68295262 -43.53515625 52.73413086 C-47.11807049 56.97435534 -50.73662691 61.18229657 -54.375 65.375 C-54.91560059 65.99802002 -55.45620117 66.62104004 -56.01318359 67.26293945 C-58.80484302 70.47776524 -61.60049467 73.68907976 -64.3984375 76.8984375 C-70.72742028 84.1670146 -76.95746328 91.48976702 -83 99 C-84.9375 98.6875 -84.9375 98.6875 -87 98 C-87.33 97.01 -87.66 96.02 -88 95 C-89.3145165 94.29695761 -90.65087784 93.63410695 -92 93 C-93.69586182 91.54464722 -93.69586182 91.54464722 -95.39160156 89.83544922 C-96.35214447 88.87467972 -96.35214447 88.87467972 -97.33209229 87.89450073 C-98.01140808 87.20486237 -98.69072388 86.515224 -99.390625 85.8046875 C-100.09523865 85.09724396 -100.79985229 84.38980042 -101.52581787 83.66091919 C-103.7719539 81.40360138 -106.01103009 79.13942367 -108.25 76.875 C-109.77297717 75.34199047 -111.29640939 73.80943285 -112.8203125 72.27734375 C-116.55216815 68.52345427 -120.27825351 64.76391086 -124 61 C-121 61 -121 61 -119.45361328 62.23754883 C-118.91462402 62.80497803 -118.37563477 63.37240723 -117.8203125 63.95703125 C-116.92119141 64.88418945 -116.92119141 64.88418945 -116.00390625 65.83007812 C-115.38386719 66.48427734 -114.76382812 67.13847656 -114.125 67.8125 C-108.62898177 73.6047399 -108.62898177 73.6047399 -102 78 C-98.90454873 80.18946553 -97.04082693 81.93814102 -94.9375 85.125 C-92.94854787 88.07634832 -92.11495666 88.63720646 -89 90 C-87.66666667 91.33333333 -86.33333333 92.66666667 -85 94 C-84.34 94 -83.68 94 -83 94 C-82.773125 93.443125 -82.54625 92.88625 -82.3125 92.3125 C-80.12205252 88.45314015 -76.75940564 85.72046176 -73.5625 82.6875 C-70.84036695 79.83257997 -68.65236619 76.82413543 -66.4296875 73.57421875 C-65.95789063 73.05472656 -65.48609375 72.53523437 -65 72 C-64.01 72 -63.02 72 -62 72 C-61.9071875 70.9171875 -61.9071875 70.9171875 -61.8125 69.8125 C-60.72938094 66.06324172 -58.84971923 64.66386797 -56 62 C-54.71266054 60.61937508 -53.44240178 59.2226736 -52.1875 57.8125 C-51.28064453 56.80123047 -51.28064453 56.80123047 -50.35546875 55.76953125 C-48.79729987 54.10688352 -48.79729987 54.10688352 -49 52 C-48.01 51.67 -47.02 51.34 -46 51 C-43.77674353 48.43988649 -41.88120591 45.82180887 -40 43 C-39.175 42.21625 -38.35 41.4325 -37.5 40.625 C-34.892204 38.225566 -34.892204 38.225566 -34 35.375 C-32.67457643 32.22711903 -30.89542376 31.72346652 -28 30 C-26.63988391 28.01811655 -25.30208796 26.02048131 -24 24 C-23.34 24 -22.68 24 -22 24 C-21.505 22.515 -21.505 22.515 -21 21 C-20.01 20.34 -19.02 19.68 -18 19 C-17.505 17.515 -17.505 17.515 -17 16 C-15.3540349 14.31288577 -13.68762851 12.6454378 -12 11 C-11.67 10.34 -11.34 9.68 -11 9 C-10.34 9 -9.68 9 -9 9 C-9 8.34 -9 7.68 -9 7 C-7.28515625 5.52734375 -7.28515625 5.52734375 -5.0625 3.9375 C-2.41985962 2.10094469 -2.41985962 2.10094469 0 0 Z " fill="#23D4D2" transform="translate(625,615)"/>
<path d="M0 0 C0.88474817 0.00082832 1.76949635 0.00165665 2.68105507 0.00251007 C3.68021226 0.00410755 3.68021226 0.00410755 4.69955444 0.0057373 C4.67613259 0.5801484 4.65271074 1.1545595 4.62857914 1.74637699 C4.06329931 15.88368443 3.6794682 30.01688589 3.48452854 44.16427708 C3.38608414 51.00809345 3.23099931 57.84102795 2.9336853 64.67932129 C0.42328715 99.55469474 0.42328715 99.55469474 14.58130932 129.97812939 C22.25664856 138.03655024 31.30740835 147.47770955 42.69955444 149.0057373 C43.88705444 151.3807373 43.88705444 151.3807373 44.69955444 154.0057373 C46.03334019 155.8412172 46.03334019 155.8412172 47.69955444 157.0057373 C48.68955444 157.0057373 49.67955444 157.0057373 50.69955444 157.0057373 C50.92642944 157.7276123 51.15330444 158.4494873 51.38705444 159.1932373 C52.96190642 162.56792012 54.9809309 164.48603744 57.69955444 167.0057373 C59.51205444 168.6932373 59.51205444 168.6932373 60.69955444 170.0057373 C60.69955444 170.6657373 60.69955444 171.3257373 60.69955444 172.0057373 C62.01955444 172.3357373 63.33955444 172.6657373 64.69955444 173.0057373 C64.69955444 173.6657373 64.69955444 174.3257373 64.69955444 175.0057373 C65.35955444 175.0057373 66.01955444 175.0057373 66.69955444 175.0057373 C66.36955444 175.6657373 66.03955444 176.3257373 65.69955444 177.0057373 C59.03152123 173.27948345 54.32710064 168.69749562 49.44564819 162.9354248 C47.81583774 161.13424726 46.15973472 159.63995126 44.26205444 158.1307373 C43.41642944 157.4294873 42.57080444 156.7282373 41.69955444 156.0057373 C41.69955444 155.3457373 41.69955444 154.6857373 41.69955444 154.0057373 C40.70955444 153.6757373 39.71955444 153.3457373 38.69955444 153.0057373 C38.69955444 152.3457373 38.69955444 151.6857373 38.69955444 151.0057373 C38.10728561 150.73616714 37.51501678 150.46659698 36.90480042 150.18885803 C34.70432537 149.00829692 33.20708239 147.80180846 31.4156189 146.07580566 C30.7985054 145.48436264 30.18139191 144.89291962 29.545578 144.28355408 C28.89127304 143.64402298 28.23696808 143.00449188 27.56283569 142.34558105 C26.88278976 141.68167862 26.20274384 141.01777618 25.50209045 140.33375549 C24.06778191 138.927072 22.6365183 137.51727798 21.20809937 136.10461426 C19.74757858 134.66715005 18.27816313 133.238666 16.79989624 131.81945801 C14.65919576 129.76426135 12.54640461 127.6836731 10.43783569 125.59558105 C9.77745804 124.97021957 9.11708038 124.34485809 8.43669128 123.70054626 C7.82903427 123.08703812 7.22137726 122.47352997 6.5953064 121.84143066 C5.79066704 121.05439003 5.79066704 121.05439003 4.96977234 120.25144958 C1.43177895 113.99636908 2.56012288 105.13801362 2.58602905 98.16174316 C2.58588303 97.11679687 2.585737 96.07185059 2.58558655 94.99523926 C2.58627852 91.57033145 2.59403721 88.14547926 2.60189819 84.72058105 C2.60376492 82.33447804 2.60518762 79.94837465 2.60618591 77.56227112 C2.60999106 71.30371021 2.61980415 65.04517277 2.63088989 58.78662109 C2.64114717 52.3915641 2.64569276 45.99650329 2.65072632 39.60144043 C2.66142831 27.06952942 2.67828638 14.53763461 2.69955444 2.0057373 C1.71504885 2.05212798 1.71504885 2.05212798 0.71065426 2.09945583 C-2.29887733 2.23986753 -5.30856512 2.37661287 -8.31826782 2.51330566 C-9.35061806 2.56201561 -10.38296829 2.61072556 -11.44660187 2.66091156 C-19.08628546 3.0041689 -26.5996943 2.99668854 -34.23794556 2.5682373 C-35.32655884 2.51603027 -36.41517212 2.46382324 -37.53677368 2.41003418 C-40.1252942 2.28459926 -42.71292435 2.15008858 -45.30044556 2.0057373 C-45.30044556 1.6757373 -45.30044556 1.3457373 -45.30044556 1.0057373 C-39.78697783 0.86167449 -34.27346939 0.71932388 -28.75991821 0.57849121 C-26.88816158 0.53044785 -25.01641644 0.4819541 -23.14468384 0.4329834 C-20.43882167 0.3622702 -17.73292091 0.29323068 -15.02700806 0.2244873 C-14.20366974 0.20261353 -13.38033142 0.18073975 -12.53204346 0.15820312 C-8.35372667 0.05364659 -4.17973601 -0.0051027 0 0 Z " fill="#38A0EA" transform="translate(437.3004455566406,498.9942626953125)"/>
<path d="M0 0 C0.66 0 1.32 0 2 0 C0.79618552 2.49361571 -0.45428722 4.68143083 -2 7 C37.93 7 77.86 7 119 7 C119 56.5 119 106 119 157 C118.67 157 118.34 157 118 157 C118 108.16 118 59.32 118 9 C77.93958034 9.40823812 77.93958034 9.40823812 37.87939453 9.83837891 C30.14428711 9.91088867 30.14428711 9.91088867 26.52706909 9.94223022 C23.99211936 9.9661118 21.45720546 9.99399578 18.92233276 10.0249939 C15.09033535 10.07108628 11.25841735 10.1046129 7.42626953 10.13525391 C5.72265353 10.16010077 5.72265353 10.16010077 3.98462105 10.1854496 C2.95748938 10.19109114 1.9303577 10.19673267 0.87210083 10.20254517 C-0.02572554 10.2117631 -0.9235519 10.22098103 -1.84858513 10.23047829 C-4 10 -4 10 -6 8 C-5.04956626 6.66102417 -4.08940853 5.32894573 -3.125 4 C-2.59132813 3.2575 -2.05765625 2.515 -1.5078125 1.75 C-1.01023437 1.1725 -0.51265625 0.595 0 0 Z " fill="#3877E4" transform="translate(369,448)"/>
<path d="M0 0 C1.21538405 0.00138269 1.21538405 0.00138269 2.45532131 0.00279331 C3.38225292 0.00141865 4.30918453 0.00004398 5.26420498 -0.00137234 C6.80168392 0.00402058 6.80168392 0.00402058 8.37022305 0.00952244 C9.97978123 0.0093034 9.97978123 0.0093034 11.62185574 0.00907993 C15.18765656 0.00977959 18.75340589 0.01757445 22.31919765 0.02539158 C24.78399534 0.02725557 27.24879339 0.02867956 29.71359158 0.0296793 C36.21558045 0.03350596 42.71754716 0.0433375 49.21952724 0.05438328 C55.84844957 0.06513035 62.47737833 0.06917624 69.10630703 0.0742197 C82.12389464 0.08495964 95.14146685 0.10184686 108.1590414 0.12304783 C108.1590414 0.45304783 108.1590414 0.78304783 108.1590414 1.12304783 C99.62574995 1.88768337 91.18567513 2.26237512 82.6199789 2.22070408 C81.49129391 2.21928913 80.36260891 2.21787418 79.19972134 2.21641636 C75.64446602 2.21088539 72.08927717 2.19835383 68.5340414 2.18554783 C66.11346941 2.1805232 63.69289641 2.175962 61.27232265 2.17187595 C55.98367893 2.16210779 50.69506868 2.14794705 45.40644741 2.12977695 C43.65731848 2.12453976 41.90817818 2.12304783 40.1590414 2.12304783 C38.14060288 2.02978277 36.12217611 1.9362498 34.10383511 1.84089756 C30.65828772 1.69399438 27.21206759 1.60430468 23.76451015 1.51879978 C21.95421944 1.46360404 20.14441659 1.38861956 18.33579922 1.29321384 C7.55479751 0.44290794 7.55479751 0.44290794 -1.98451328 4.51513767 C-4.23633403 7.28271567 -6.04431835 10.0481045 -7.8409586 13.12304783 C-8.81760608 14.14586731 -9.81257861 15.15225712 -10.8409586 16.12304783 C-11.30888828 16.91066502 -11.77681797 17.6982822 -12.25892735 18.50976658 C-13.96767806 21.33236962 -15.9014947 23.52800785 -18.1534586 25.93554783 C-21.43430287 29.51801811 -24.46093209 33.13707644 -27.31361485 37.06445408 C-29.08768064 39.45558624 -30.95988341 41.75276371 -32.8409586 44.06054783 C-36.47451907 48.56756035 -39.72961636 53.2438975 -42.8409586 58.12304783 C-43.8409586 55.12304783 -43.8409586 55.12304783 -43.19642735 52.79492283 C-41.55619859 49.56173415 -39.5231744 47.11654729 -37.1534586 44.37304783 C-34.19038128 40.90166682 -31.24776747 37.4303337 -28.4659586 33.81054783 C-25.37381801 29.78712726 -22.2071479 25.82807375 -19.0284586 21.87304783 C-14.57312415 16.32546502 -10.18920771 10.72924411 -5.87489414 5.07129002 C-2.11301826 0.14123202 -2.11301826 0.14123202 0 0 Z " fill="#8052F3" transform="translate(379.8409585952759,356.8769521713257)"/>
<path d="M0 0 C1.85507172 0.01055923 1.85507172 0.01055923 3.74761963 0.02133179 C5.10482881 0.03431156 6.46203704 0.04739168 7.81924438 0.06056213 C9.25853166 0.07071415 10.69782224 0.08040681 12.13711548 0.0896759 C16.03337581 0.1160645 19.92955873 0.14886251 23.82575941 0.1828258 C27.90165491 0.21726066 31.97759174 0.24578082 36.05352783 0.27493286 C43.76696169 0.33099759 51.48034379 0.39236875 59.19372141 0.4556542 C67.97721813 0.52746063 76.7607562 0.59333955 85.5443027 0.65872467 C103.60817174 0.79332551 121.67197557 0.93535689 139.73574829 1.08229065 C139.73574829 1.41229065 139.73574829 1.74229065 139.73574829 2.08229065 C138.97706011 2.07638287 138.21837193 2.07047508 137.43669319 2.06438828 C118.94847074 1.9245677 100.46107289 1.85137374 81.97230721 1.85169601 C73.03100394 1.85025688 64.09081083 1.82653803 55.14981079 1.74977112 C47.35374411 1.68289172 39.55887448 1.65842461 31.76254356 1.68419576 C27.63649996 1.69637155 23.51292627 1.6877809 19.38724136 1.62833405 C15.49706126 1.5729523 11.61092609 1.57463178 7.72064018 1.61859703 C6.29927761 1.62487438 4.87764712 1.61095004 3.45673943 1.57444954 C-4.12198357 1.3015944 -4.12198357 1.3015944 -10.8648591 4.29694843 C-14.2077041 7.52524681 -16.87242176 11.10838232 -19.26425171 15.08229065 C-19.26425171 15.74229065 -19.26425171 16.40229065 -19.26425171 17.08229065 C-19.97581421 17.64174377 -20.68737671 18.2011969 -21.42050171 18.77760315 C-24.78395804 21.50348122 -27.16240344 24.52460007 -29.76425171 27.95729065 C-30.69045793 29.16369372 -31.61753515 30.36942861 -32.54550171 31.57447815 C-32.9928064 32.15681213 -33.44011108 32.73914612 -33.90097046 33.33912659 C-35.96085338 35.97300267 -38.10766564 38.52720498 -40.26425171 41.08229065 C-40.75925171 39.59729065 -40.75925171 39.59729065 -41.26425171 38.08229065 C-39.95175171 35.89479065 -39.95175171 35.89479065 -38.26425171 34.08229065 C-37.60425171 34.08229065 -36.94425171 34.08229065 -36.26425171 34.08229065 C-35.99612671 33.36041565 -35.72800171 32.63854065 -35.45175171 31.89479065 C-33.19261264 26.54419811 -30.34824523 23.16628417 -26.26425171 19.08229065 C-24.15368349 16.44408038 -22.08403828 13.77933425 -20.03378296 11.0940094 C-19.15786499 10.09820862 -19.15786499 10.09820862 -18.26425171 9.08229065 C-17.60425171 9.08229065 -16.94425171 9.08229065 -16.26425171 9.08229065 C-15.97550171 8.31916565 -15.68675171 7.55604065 -15.38925171 6.76979065 C-14.26425171 4.08229065 -14.26425171 4.08229065 -12.26425171 1.08229065 C-8.16864447 0.05990847 -4.20537781 -0.03257177 0 0 Z " fill="#3F58DE" transform="translate(412.2642517089844,406.91770935058594)"/>
<path d="M0 0 C0.99 0 1.98 0 3 0 C3.05066736 7.75957454 3.08571984 15.51910648 3.10986328 23.27880859 C3.11992719 25.91912429 3.13357952 28.55942883 3.15087891 31.19970703 C3.17510971 34.99254103 3.18647923 38.78522779 3.1953125 42.578125 C3.20563507 43.76053772 3.21595764 44.94295044 3.22659302 46.16119385 C3.22674408 47.26203308 3.22689514 48.36287231 3.22705078 49.49707031 C3.231492 50.46525696 3.23593323 51.4334436 3.24050903 52.43096924 C2.80153281 57.11995495 0.45065829 59.8326019 -2.625 63.25 C-3.25664063 63.95640625 -3.88828125 64.6628125 -4.5390625 65.390625 C-5.26222656 66.18726563 -5.26222656 66.18726563 -6 67 C-6 64 -6 64 -3.53051758 61.02514648 C0.05170724 56.19137422 -0.36679447 51.41388461 -0.51171875 45.59765625 C-0.51879349 44.51995468 -0.52586823 43.44225311 -0.53315735 42.33189392 C-0.56102511 38.90804041 -0.62375262 35.48585472 -0.6875 32.0625 C-0.71259257 29.73374766 -0.73540405 27.40496956 -0.75585938 25.07617188 C-0.81082668 19.38355074 -0.89437721 13.69189455 -1 8 C-1.95554394 9.11004353 -2.91040874 10.22067168 -3.86499023 11.33154297 C-4.39680405 11.94996063 -4.92861786 12.5683783 -5.47654724 13.20553589 C-7.39688538 15.46748846 -9.23341106 17.78887409 -11.0625 20.125 C-18.21159924 29.10579962 -18.21159924 29.10579962 -22 31 C-22.3125 28.8125 -22.3125 28.8125 -22 26 C-20.0625 23.8125 -20.0625 23.8125 -18.6796875 22.55859375 C-12.11392556 16.46617744 -6.71274926 9.46215014 -1.7265625 2.0546875 C-1.15679688 1.37664062 -0.58703125 0.69859375 0 0 Z " fill="#36E4E1" transform="translate(686,485)"/>
<path d="M0 0 C0.66 0.66 1.32 1.32 2 2 C1.0409375 3.175625 1.0409375 3.175625 0.0625 4.375 C-1.98142313 6.79539281 -1.98142313 6.79539281 -3 9 C-3.66 9 -4.32 9 -5 9 C-5 9.66 -5 10.32 -5 11 C-6.62719196 12.70522781 -8.30166307 14.36561718 -10 16 C-15.82516187 22.10074049 -21.06609088 28.34015725 -25.92578125 35.23046875 C-28.93890367 39.25363975 -32.32352698 42.88662647 -35.75 46.55859375 C-37.49411127 48.4510756 -39.11063147 50.34685659 -40.6875 52.375 C-43.50434528 55.57250005 -46.45992301 57.63994867 -50 60 C-48.34814194 56.08273661 -45.69575715 53.10911994 -42.9375 49.9375 C-41.93544131 48.77018032 -40.93414971 47.60220174 -39.93359375 46.43359375 C-39.43585449 45.85335449 -38.93811523 45.27311523 -38.42529297 44.67529297 C-36.41474314 42.3120876 -34.45585357 39.90856471 -32.5 37.5 C-28.81070483 32.96387373 -25.03646587 28.50844406 -21.23754883 24.06445312 C-17.29250459 19.41722547 -13.5378684 14.63250854 -9.87939453 9.7565918 C-6.93937742 5.91901868 -3.81037148 2.98154615 0 0 Z " fill="#28D5D6" transform="translate(662,517)"/>
<path d="M0 0 C0.33 0 0.66 0 1 0 C1 36.96 1 73.92 1 112 C4.63 107.38 8.26 102.76 12 98 C14.21148982 95.35181684 16.42102077 92.72308492 18.6875 90.125 C19.21021484 89.52042969 19.73292969 88.91585937 20.27148438 88.29296875 C21.51151183 86.85954252 22.75528545 85.42935807 24 84 C24 87.77622631 22.94786173 88.5913843 20.5625 91.4375 C17.97073817 94.37360768 17.97073817 94.37360768 16.58203125 97.92504883 C15.87869651 100.43244897 14.84805806 101.57679349 13.05859375 103.453125 C12.47529297 104.071875 11.89199219 104.690625 11.29101562 105.328125 C10.67935547 105.96234375 10.06769531 106.5965625 9.4375 107.25 C8.82197266 107.8996875 8.20644531 108.549375 7.57226562 109.21875 C6.05456842 110.81880287 4.53042885 112.41213644 3 114 C2.01 113.67 1.02 113.34 0 113 C-0.80922001 84.39838468 -1.09815312 55.85567737 -0.5625 27.25 C-0.54968616 26.5650861 -0.53687233 25.8801722 -0.5236702 25.17450333 C-0.36520711 16.78265219 -0.19076785 8.39117997 0 0 Z " fill="#38F2FE" transform="translate(582,499)"/>
<path d="M0 0 C0 4.12936686 -2.2153021 5.69539269 -4.9375 8.5 C-8.6547932 12.43292736 -12.22891014 16.40543348 -15.625 20.625 C-19.18552205 25.04714304 -22.91273281 29.26340802 -26.7421875 33.453125 C-29.13255121 36.14952144 -31.37880941 38.93274401 -33.625 41.75 C-37.10205343 46.05812419 -40.65497142 49.57944559 -45 53 C-43.68380101 47.54717562 -42.45449296 45.51467219 -38 42 C-36.53526596 40.33269636 -35.11721763 38.62315994 -33.75 36.875 C-33.06421875 36.00617187 -32.3784375 35.13734375 -31.671875 34.2421875 C-29.98569444 32.1181693 -29.98569444 32.1181693 -29 30 C-28.34 30 -27.68 30 -27 30 C-26.67 29.01 -26.34 28.02 -26 27 C-25.34 27 -24.68 27 -24 27 C-23.67 25.35 -23.34 23.7 -23 22 C-22.01 21.67 -21.02 21.34 -20 21 C-18.03957015 18.75127164 -16.33595517 16.67191034 -15 14 C-14.34 14 -13.68 14 -13 14 C-12.78601563 13.27425781 -12.57203125 12.54851563 -12.3515625 11.80078125 C-10.63325625 8.24001368 -8.48075796 6.60710213 -5.375 4.1875 C-4.37210938 3.39730469 -3.36921875 2.60710938 -2.3359375 1.79296875 C-1.56507813 1.20128906 -0.79421875 0.60960937 0 0 Z " fill="#2AE0D9" transform="translate(671,562)"/>
<path d="M0 0 C0 3.74591662 -0.78444301 4.16285309 -3.3125 6.8125 C-7.53421464 11.38790553 -11.35521127 16.19183951 -15.1418457 21.1262207 C-15.58488037 21.69945068 -16.02791504 22.27268066 -16.484375 22.86328125 C-16.87334961 23.37157471 -17.26232422 23.87986816 -17.66308594 24.40356445 C-18.10426758 24.93038818 -18.54544922 25.45721191 -19 26 C-19.53238281 26.71663818 -20.06476562 27.43327637 -20.61328125 28.17163086 C-24.10533376 30.84675169 -27.48942173 30.49794915 -31.703125 30.390625 C-32.54091492 30.38496521 -33.37870483 30.37930542 -34.24188232 30.37347412 C-36.91184166 30.35112329 -39.58044787 30.30093098 -42.25 30.25 C-44.06248059 30.22993325 -45.87498226 30.21168278 -47.6875 30.1953125 C-52.12551959 30.15126294 -56.56253056 30.08224566 -61 30 C-61 29.67 -61 29.34 -61 29 C-52.96833206 27.73802051 -45.04546834 27.97216573 -36.93554688 28.12695312 C-35.85982422 28.13791016 -34.78410156 28.14886719 -33.67578125 28.16015625 C-32.2203894 28.18541382 -32.2203894 28.18541382 -30.7355957 28.21118164 C-27.77074338 27.98230192 -25.65344193 27.3259874 -23 26 C-21.94978897 24.15028304 -21.94978897 24.15028304 -21 22 C-19.3545622 20.31237149 -17.68711423 18.6459651 -16 17 C-14.41801245 15.02251556 -13.13013196 13.26026391 -12 11 C-11.34 11 -10.68 11 -10 11 C-9.75507812 10.41734375 -9.51015625 9.8346875 -9.2578125 9.234375 C-7.79564126 6.63697764 -6.15259586 5.16024169 -3.875 3.25 C-3.15054688 2.63640625 -2.42609375 2.0228125 -1.6796875 1.390625 C-1.12539063 0.93171875 -0.57109375 0.4728125 0 0 Z " fill="#30CDE9" transform="translate(645,469)"/>
<path d="M0 0 C39.93 0 79.86 0 121 0 C120.01 0.99 119.02 1.98 118 3 C117.505 2.505 117.505 2.505 117 2 C115.48224154 1.89208716 113.95952031 1.85317288 112.43797302 1.84178162 C111.45214233 1.8319928 110.46631165 1.82220398 109.4506073 1.81211853 C108.36016617 1.80636307 107.26972504 1.8006076 106.14624023 1.79467773 C105.00492645 1.78477814 103.86361267 1.77487854 102.68771362 1.76467896 C98.89469516 1.73295372 95.10166414 1.70826311 91.30859375 1.68359375 C88.68685063 1.66303373 86.0651109 1.64203753 83.44337463 1.62062073 C77.23501452 1.57064422 71.02662841 1.52572386 64.81821734 1.48259836 C57.75179224 1.43326827 50.68541423 1.37833451 43.61903465 1.32291877 C29.079401 1.20902265 14.53972049 1.1022003 0 1 C0 0.67 0 0.34 0 0 Z " fill="#44C7F1" transform="translate(537,455)"/>
<path d="M0 0 C35.64 0 71.28 0 108 0 C108 0.33 108 0.66 108 1 C99.46670855 1.76463554 91.02663373 2.13932729 82.4609375 2.09765625 C81.3322525 2.0962413 80.2035675 2.09482635 79.04067993 2.09336853 C75.48542462 2.08783756 71.93023577 2.075306 68.375 2.0625 C65.95442801 2.05747538 63.53385501 2.05291417 61.11328125 2.04882812 C55.82463752 2.03905996 50.53602728 2.02489923 45.24740601 2.00672913 C42.6838794 1.99905348 40.12190856 1.99824452 37.55859375 2.03515625 C25.02751963 2.14494038 12.51709407 1.53083999 0 1 C0 0.67 0 0.34 0 0 Z " fill="#8378FF" transform="translate(380,357)"/>
<path d="M0 0 C0.66 0.33 1.32 0.66 2 1 C-1.22110054 8.15800121 -6.03805344 14.00704931 -11.1640625 19.87890625 C-12.67498513 21.6245041 -14.16568664 23.38292772 -15.6484375 25.15234375 C-16.12708252 25.72251221 -16.60572754 26.29268066 -17.09887695 26.88012695 C-18.05217612 28.01661221 -19.00391745 29.15440661 -19.95385742 30.29370117 C-22.82167626 33.70414977 -25.80575717 36.89240028 -29 40 C-28.38722388 37.03824877 -27.74627478 35.61941217 -26 33 C-25.34 33 -24.68 33 -24 33 C-23.731875 32.278125 -23.46375 31.55625 -23.1875 30.8125 C-20.92836093 25.46190746 -18.08399352 22.08399352 -14 18 C-11.88943178 15.36178973 -9.81978657 12.6970436 -7.76953125 10.01171875 C-6.89361328 9.01591797 -6.89361328 9.01591797 -6 8 C-5.34 8 -4.68 8 -4 8 C-3.71125 7.236875 -3.4225 6.47375 -3.125 5.6875 C-2 3 -2 3 0 0 Z " fill="#7056F3" transform="translate(400,408)"/>
<path d="M0 0 C2.87652865 1.29868921 4.88246882 2.65481133 7.05859375 4.93359375 C7.60966797 5.50013672 8.16074219 6.06667969 8.72851562 6.65039062 C9.86402149 7.83780533 10.99943877 9.02530476 12.13476562 10.21289062 C15.22463244 13.38928813 18.05239917 15.88913011 22 18 C26.06089131 20.87233775 28.36475844 23.80008376 31 28 C32.64501311 30.34934343 34.32415407 32.67243621 36 35 C33.00811074 33.65599882 30.9202238 32.16903084 28.60839844 29.85131836 C27.9680365 29.21403305 27.32767456 28.57674774 26.66790771 27.92015076 C25.98859192 27.23364944 25.30927612 26.54714813 24.609375 25.83984375 C23.55245453 24.78223595 23.55245453 24.78223595 22.47418213 23.70326233 C20.98920295 22.21526641 19.50665063 20.72484513 18.02636719 19.23217773 C15.74989089 16.93739001 13.46545876 14.65076006 11.1796875 12.36523438 C9.73910936 10.91974304 8.29898904 9.47379527 6.859375 8.02734375 C6.17196228 7.33881821 5.48454956 6.65029266 4.77630615 5.94090271 C4.14855286 5.30676956 3.52079956 4.67263641 2.87402344 4.01928711 C2.31761169 3.45906357 1.76119995 2.89884003 1.18792725 2.32164001 C0 1 0 1 0 0 Z " fill="#22B5C3" transform="translate(501,675)"/>
<path d="M0 0 C0.33 0 0.66 0 1 0 C1.34104961 7.25759068 1.6308392 14.51539043 1.85746098 21.77750969 C1.96429226 25.15076948 2.08791099 28.52156604 2.25170898 31.89257812 C2.43185655 35.77974634 2.55154847 39.66494135 2.66015625 43.5546875 C2.76264427 45.34747635 2.76264427 45.34747635 2.86720276 47.17648315 C2.98865919 53.86772488 2.24951198 57.48905583 -2.28735352 62.55126953 C-3.84353498 64.04959945 -5.41411682 65.53314355 -7 67 C-8.3719361 68.5258751 -9.72933008 70.06514057 -11.0625 71.625 C-11.91521484 72.60339844 -11.91521484 72.60339844 -12.78515625 73.6015625 C-13.38650391 74.29378906 -13.38650391 74.29378906 -14 75 C-14 69.31566593 -8.81092853 65.81092853 -5 62 C-1.61434399 58.34054784 -0.49833745 56.18754753 -0.45410156 51.19995117 C-0.43438293 50.05914597 -0.41466431 48.91834076 -0.39434814 47.7429657 C-0.39311951 46.52196671 -0.39189087 45.30096771 -0.390625 44.04296875 C-0.37408875 42.78486893 -0.35755249 41.5267691 -0.34051514 40.23054504 C-0.30021503 36.89803909 -0.27686464 33.56629657 -0.26177979 30.23364258 C-0.24217401 26.82813032 -0.20020814 23.42290043 -0.16015625 20.01757812 C-0.08620769 13.34512104 -0.03460391 6.67277085 0 0 Z " fill="#1399B0" transform="translate(687,487)"/>
<path d="M0 0 C0 4.30063044 -2.59467591 6.0795241 -5.4375 9 C-10.29186999 14.10087252 -14.80568953 19.31710605 -19.16015625 24.85546875 C-21 27 -21 27 -24 29 C-22.84826645 26.53199953 -21.95216435 24.95216435 -20 23 C-19.71125 22.236875 -19.4225 21.47375 -19.125 20.6875 C-17.36565916 16.48463022 -14.65173455 13.62069957 -11.375 10.5 C-8.86050397 8.18653238 -8.86050397 8.18653238 -8 5.25 C-7.67 4.5075 -7.34 3.765 -7 3 C-4.5 2.3125 -4.5 2.3125 -2 2 C-1.34 1.34 -0.68 0.68 0 0 Z " fill="#24CDCC" transform="translate(599,645)"/>
<path d="M0 0 C0 3.77622631 -1.05213827 4.5913843 -3.4375 7.4375 C-6.02926183 10.37360768 -6.02926183 10.37360768 -7.41796875 13.92504883 C-8.12130349 16.43244897 -9.15194194 17.57679349 -10.94140625 19.453125 C-11.52470703 20.071875 -12.10800781 20.690625 -12.70898438 21.328125 C-13.32064453 21.96234375 -13.93230469 22.5965625 -14.5625 23.25 C-15.17802734 23.8996875 -15.79355469 24.549375 -16.42773438 25.21875 C-17.94543158 26.81880287 -19.46957115 28.41213644 -21 30 C-21.66 29.34 -22.32 28.68 -23 28 C-15.60421554 18.42042091 -7.94770396 9.12668273 0 0 Z " fill="#25CED7" transform="translate(606,583)"/>
<path d="M0 0 C19.8 0 39.6 0 60 0 C58.35 1.98 56.7 3.96 55 6 C55 3 55 3 56 1 C55.10087891 1.10828125 55.10087891 1.10828125 54.18359375 1.21875 C36.21334933 3.05923022 17.99173593 2.03977008 0 1 C0 0.67 0 0.34 0 0 Z " fill="#38E2FB" transform="translate(595,457)"/>
<path d="M0 0 C0.66 0 1.32 0 2 0 C0.57568513 3.06775511 -0.90780074 5.21040099 -3 8 C13.5 8 30 8 47 8 C47 8.33 47 8.66 47 9 C39.77374796 9.19326436 32.54723373 9.37075091 25.3203125 9.53710938 C22.86026169 9.5956201 20.40029502 9.65778431 17.94042969 9.72363281 C14.4109631 9.81748648 10.8814055 9.89833002 7.3515625 9.9765625 C6.24632233 10.00875885 5.14108215 10.0409552 4.00234985 10.0741272 C2.47098892 10.10438492 2.47098892 10.10438492 0.90869141 10.13525391 C0.00712311 10.15746002 -0.89444519 10.17966614 -1.82333374 10.20254517 C-4 10 -4 10 -6 8 C-5.04956626 6.66102417 -4.08940853 5.32894573 -3.125 4 C-2.59132813 3.2575 -2.05765625 2.515 -1.5078125 1.75 C-1.01023437 1.1725 -0.51265625 0.595 0 0 Z " fill="#4048E6" transform="translate(369,448)"/>
<path d="M0 0 C0 0.99 0 1.98 0 3 C-0.66 3.66 -1.32 4.32 -2 5 C-2 5.99 -2 6.98 -2 8 C-6.82403734 14.27027791 -12.29815919 19.77492644 -19 24 C-17.32191256 19.99015152 -14.56372917 16.93511979 -11.75 13.6875 C-11.25781982 13.11298096 -10.76563965 12.53846191 -10.25854492 11.9465332 C-8.84245774 10.2947038 -7.42148088 8.64718723 -6 7 C-4.77046227 5.56281737 -3.54119792 4.12540068 -2.3125 2.6875 C-1.549375 1.800625 -0.78625 0.91375 0 0 Z " fill="#24CBD0" transform="translate(631,553)"/>
<path d="M0 0 C0 3.44843788 -0.33360255 3.7156957 -2.5625 6.125 C-5.6938387 9.61250992 -8.55026227 13.25459775 -11.38671875 16.984375 C-12.83194614 18.7900344 -14.32902807 20.40475187 -16 22 C-16.66 21.67 -17.32 21.34 -18 21 C-17.54625 20.608125 -17.0925 20.21625 -16.625 19.8125 C-14.87430042 18.09681542 -14.87430042 18.09681542 -14.25 15.8125 C-11.33301553 9.24928495 -5.57368607 4.35019401 0 0 Z " fill="#29DFDE" transform="translate(646,537)"/>
<path d="M0 0 C0.495 1.98 0.495 1.98 1 4 C-11.87 4 -24.74 4 -38 4 C-38 3.67 -38 3.34 -38 3 C-29.96833206 1.73802051 -22.04546834 1.97216573 -13.93554688 2.12695312 C-12.85982422 2.13791016 -11.78410156 2.14886719 -10.67578125 2.16015625 C-9.2203894 2.18541382 -9.2203894 2.18541382 -7.7355957 2.21118164 C-4.8035907 1.98483766 -2.65729827 1.22628252 0 0 Z " fill="#3AE2FB" transform="translate(622,495)"/>
<path d="M0 0 C0.33 0.99 0.66 1.98 1 3 C-2.29281385 8.12332379 -6.79247254 11.95169124 -12 15 C-10.34643078 11.41726669 -8.32019297 8.19026533 -6 5 C-5.34 5 -4.68 5 -4 5 C-3.67 4.01 -3.34 3.02 -3 2 C-2.01 1.34 -1.02 0.68 0 0 Z " fill="#27DAD9" transform="translate(607,634)"/>
<path d="M0 0 C0 3.54957438 -0.48588719 3.88424715 -2.84375 6.35546875 C-3.72353516 7.28842773 -3.72353516 7.28842773 -4.62109375 8.24023438 C-5.24113281 8.88283203 -5.86117187 9.52542969 -6.5 10.1875 C-7.43005859 11.16879883 -7.43005859 11.16879883 -8.37890625 12.16992188 C-9.9127616 13.78636944 -11.45321411 15.39593746 -13 17 C-14 14 -14 14 -13.375 12.0703125 C-11.60752763 9.40906149 -9.53435642 7.81260389 -7 5.875 C-3.36799396 3.08770843 -3.36799396 3.08770843 0 0 Z " fill="#25CEC9" transform="translate(640,598)"/>
<path d="M0 0 C0.66 0 1.32 0 2 0 C1.69917701 4.28094249 0.18283484 6.18748029 -2.99804688 8.99414062 C-3.51431641 9.42919922 -4.03058594 9.86425781 -4.5625 10.3125 C-5.08263672 10.76689453 -5.60277344 11.22128906 -6.13867188 11.68945312 C-7.41677066 12.80339243 -8.70720655 13.90314888 -10 15 C-10 11.43013844 -9.3954571 10.97905092 -7.0625 8.4375 C-4.75540038 5.91000271 -4.75540038 5.91000271 -3 3 C-2.34 3 -1.68 3 -1 3 C-0.67 2.01 -0.34 1.02 0 0 Z " fill="#2BE2DB" transform="translate(645,589)"/>
<path d="M0 0 C4.6445148 2.80831128 7.90452462 5.49749036 11 10 C10.8125 12.375 10.8125 12.375 10 14 C8.5 12.625 8.5 12.625 7 11 C7 10.34 7 9.68 7 9 C6.34 9 5.68 9 5 9 C2 5.53846154 2 5.53846154 2 3 C1.34 3 0.68 3 0 3 C0 2.01 0 1.02 0 0 Z " fill="#37C5EF" transform="translate(656,375)"/>
<path d="M0 0 C0 4.74373374 -1.30817789 7.23899568 -4.5 10.75 C-7 13 -7 13 -9 14 C-9.3125 11.8125 -9.3125 11.8125 -9 9 C-6.75 6.4375 -6.75 6.4375 -4 4 C-3.236875 3.236875 -2.47375 2.47375 -1.6875 1.6875 C-1.130625 1.130625 -0.57375 0.57375 0 0 Z " fill="#28D2D6" transform="translate(673,502)"/>
<path d="M0 0 C0.66 0.66 1.32 1.32 2 2 C1.43152344 2.6290625 0.86304688 3.258125 0.27734375 3.90625 C-4.5271682 9.23211968 -9.29600848 14.58511587 -14 20 C-14 14.31566593 -8.81092853 10.81092853 -5 7 C-2.20935253 3.68966618 -2.20935253 3.68966618 0 0 Z " fill="#25BDBA" transform="translate(687,542)"/>
<path d="M0 0 C1.61229477 3.22458954 1.01501302 6.62471601 0.9375 10.17578125 C0.91159342 12.98546564 0.91159342 12.98546564 1.55859375 15.6171875 C2.1986775 19.07250688 1.0933372 21.71998839 0 25 C-0.33 25 -0.66 25 -1 25 C-1.22702385 21.77186442 -1.42828723 18.54261311 -1.625 15.3125 C-1.68945312 14.40048828 -1.75390625 13.48847656 -1.8203125 12.54882812 C-2.30707097 4.18266684 -2.30707097 4.18266684 0 0 Z " fill="#7149DE" transform="translate(336,410)"/>
<path d="M0 0 C9.57 0 19.14 0 29 0 C29 0.33 29 0.66 29 1 C24.89587259 1.16764279 20.79169203 1.3339474 16.6875 1.5 C14.93663086 1.57154297 14.93663086 1.57154297 13.15039062 1.64453125 C12.03212891 1.68964844 10.91386719 1.73476563 9.76171875 1.78125 C8.2142395 1.8440918 8.2142395 1.8440918 6.63549805 1.90820312 C4.75788811 1.97360204 2.87874855 2 1 2 C0.67 1.34 0.34 0.68 0 0 Z " fill="#8472FF" transform="translate(419,357)"/>
<path d="M0 0 C0.33 0.99 0.66 1.98 1 3 C-2.23076604 7.72188882 -6.24393198 11.82928799 -11 15 C-9.3718356 11.24269753 -6.98598083 8.383177 -4.375 5.25 C-3.55773437 4.26515625 -2.74046875 3.2803125 -1.8984375 2.265625 C-1.27195312 1.51796875 -0.64546875 0.7703125 0 0 Z " fill="#724AE9" transform="translate(360,380)"/>
<path d="M0 0 C1.65 0 3.3 0 5 0 C5.28875 0.763125 5.5775 1.52625 5.875 2.3125 C6.96269013 5.15029308 6.96269013 5.15029308 9 8 C7.35 7.67 5.7 7.34 4 7 C4 6.34 4 5.68 4 5 C3.01 4.67 2.02 4.34 1 4 C0.3125 1.9375 0.3125 1.9375 0 0 Z " fill="#32C5EE" transform="translate(475,648)"/>
<path d="M0 0 C8.25 0 16.5 0 25 0 C24.01 0.99 23.02 1.98 22 3 C21.67 2.67 21.34 2.34 21 2 C19.44051458 1.84313751 17.87457332 1.74923361 16.30859375 1.68359375 C15.36435547 1.64169922 14.42011719 1.59980469 13.44726562 1.55664062 C12.45404297 1.51732422 11.46082031 1.47800781 10.4375 1.4375 C9.44041016 1.39431641 8.44332031 1.35113281 7.41601562 1.30664062 C4.9441585 1.20019702 2.4721969 1.09818072 0 1 C0 0.67 0 0.34 0 0 Z " fill="#3CCAE2" transform="translate(633,455)"/>
<path d="M0 0 C0 3.77910478 -0.99703962 4.46106101 -3.5 7.1875 C-4.47453125 8.26064453 -4.47453125 8.26064453 -5.46875 9.35546875 C-5.9740625 9.89816406 -6.479375 10.44085938 -7 11 C-7.5703125 9.09375 -7.5703125 9.09375 -8 7 C-6.875 5.5 -6.875 5.5 -5 4 C-4.113125 3.278125 -3.22625 2.55625 -2.3125 1.8125 C-1.549375 1.214375 -0.78625 0.61625 0 0 Z " fill="#2CC2E2" transform="translate(631,486)"/>
<path d="M0 0 C0 4.13781054 -1.71509607 5.20919996 -4.5 8.1875 C-5.3353125 9.08855469 -6.170625 9.98960937 -7.03125 10.91796875 C-7.6809375 11.60503906 -8.330625 12.29210937 -9 13 C-9 8.90367503 -7.44601804 7.23932119 -5 4 C-2.25 1.625 -2.25 1.625 0 0 Z " fill="#25C3BE" transform="translate(671,562)"/>
<path d="M0 0 C3.57410797 2.68058098 6.31941902 5.42589203 9 9 C8.67 9.66 8.34 10.32 8 11 C3.91110799 8.77777608 2.2588343 7.70591174 0.625 3.25 C0.41875 2.1775 0.2125 1.105 0 0 Z " fill="#33ADE5" transform="translate(646,361)"/>
<path d="M0 0 C6.02837977 2.6792799 9.57110093 6.41216448 13 12 C9.34435261 10.46563424 7.01301377 8.25017578 4.25 5.4375 C3.45078125 4.63183594 2.6515625 3.82617188 1.828125 2.99609375 C0 1 0 1 0 0 Z " fill="#25E8EE" transform="translate(519,691)"/>
<path d="M0 0 C0.66 0.66 1.32 1.32 2 2 C-0.64 4.64 -3.28 7.28 -6 10 C-6 6.41087588 -5.33563446 5.89142971 -3 3.3125 C-2.443125 2.68988281 -1.88625 2.06726563 -1.3125 1.42578125 C-0.879375 0.95527344 -0.44625 0.48476563 0 0 Z " fill="#2DEAED" transform="translate(606,585)"/>
<path d="M0 0 C0.66 0 1.32 0 2 0 C1.33333333 1.33333333 0.66666667 2.66666667 0 4 C-0.33 4.70125 -0.66 5.4025 -1 6.125 C-2 8 -2 8 -4 10 C-4.66 9.34 -5.32 8.68 -6 8 C-5.04956626 6.66102417 -4.08940853 5.32894573 -3.125 4 C-2.59132813 3.2575 -2.05765625 2.515 -1.5078125 1.75 C-1.01023437 1.1725 -0.51265625 0.595 0 0 Z " fill="#6553EF" transform="translate(369,448)"/>
<path d="M0 0 C0 3 0 3 -1.3125 4.38671875 C-2.875 5.59114583 -4.4375 6.79557292 -6 8 C-6 6.68 -6 5.36 -6 4 C-3.5625 2.3125 -3.5625 2.3125 -1 1 C-0.67 0.67 -0.34 0.34 0 0 Z " fill="#25C5C0" transform="translate(653,583)"/>
<path d="M0 0 C0.33 0.66 0.66 1.32 1 2 C-0.65 3.98 -2.3 5.96 -4 8 C-4.66 7.67 -5.32 7.34 -6 7 C-4.02 4.69 -2.04 2.38 0 0 Z " fill="#2EEFEB" transform="translate(678,498)"/>
<path d="M0 0 C0.66 0.66 1.32 1.32 2 2 C1.34 2 0.68 2 0 2 C0 1.34 0 0.68 0 0 Z " fill="#53BEEB" transform="translate(644,355)"/>
<path d="M0 0 C2 1 2 1 2 1 Z " fill="#4BBAEC" transform="translate(441,619)"/>
<path d="M0 0 C2 1 2 1 2 1 Z " fill="#658FF8" transform="translate(413,502)"/>
<path d="M0 0 C2 1 2 1 2 1 Z " fill="#6A8AF7" transform="translate(403,502)"/>
<path d="" fill="#8074F9" transform="translate(0,0)"/>
<path d="" fill="#4CC7EB" transform="translate(0,0)"/>
<path d="M0 0 C2 1 2 1 2 1 Z " fill="#4BC6EB" transform="translate(667,384)"/>
<path d="" fill="#4DC6EE" transform="translate(0,0)"/>
<path d="" fill="#434644" transform="translate(0,0)"/>
<path d="" fill="#3ECCC0" transform="translate(0,0)"/>
<path d="" fill="#35D8DA" transform="translate(0,0)"/>
<path d="" fill="#36D6DE" transform="translate(0,0)"/>
<path d="" fill="#39D3DC" transform="translate(0,0)"/>
<path d="" fill="#3BD4E3" transform="translate(0,0)"/>
<path d="" fill="#38DBD2" transform="translate(0,0)"/>
<path d="" fill="#3FD2E5" transform="translate(0,0)"/>
<path d="" fill="#3FD0E6" transform="translate(0,0)"/>
<path d="" fill="#41D0E9" transform="translate(0,0)"/>
<path d="" fill="#41CDE9" transform="translate(0,0)"/>
<path d="" fill="#43CCED" transform="translate(0,0)"/>
<path d="" fill="#45C8EE" transform="translate(0,0)"/>
<path d="" fill="#41C4EA" transform="translate(0,0)"/>
<path d="" fill="#43C9EE" transform="translate(0,0)"/>
<path d="" fill="#44C8EA" transform="translate(0,0)"/>
<path d="" fill="#44C3ED" transform="translate(0,0)"/>
<path d="" fill="#43C0EA" transform="translate(0,0)"/>
<path d="" fill="#45C2ED" transform="translate(0,0)"/>
<path d="" fill="#47C3EF" transform="translate(0,0)"/>
<path d="" fill="#45C2ED" transform="translate(0,0)"/>
<path d="" fill="#48C0EC" transform="translate(0,0)"/>
<path d="" fill="#49C0EB" transform="translate(0,0)"/>
<path d="" fill="#4BBCEB" transform="translate(0,0)"/>
<path d="" fill="#3CE3EB" transform="translate(0,0)"/>
<path d="" fill="#44CDF6" transform="translate(0,0)"/>
<path d="" fill="#3BE1E4" transform="translate(0,0)"/>
<path d="" fill="#3AE2E6" transform="translate(0,0)"/>
<path d="" fill="#3CE0E3" transform="translate(0,0)"/>
<path d="" fill="#3EDED1" transform="translate(0,0)"/>
<path d="" fill="#3DDFD3" transform="translate(0,0)"/>
<path d="" fill="#3EDFD6" transform="translate(0,0)"/>
<path d="" fill="#40E0D3" transform="translate(0,0)"/>
<path d="" fill="#3FDCCE" transform="translate(0,0)"/>
<path d="" fill="#39DFDB" transform="translate(0,0)"/>
<path d="" fill="#40E4E5" transform="translate(0,0)"/>
<path d="" fill="#3DE3E3" transform="translate(0,0)"/>
<path d="" fill="#43DBF2" transform="translate(0,0)"/>
<path d="" fill="#40DCF2" transform="translate(0,0)"/>
<path d="" fill="#42DAF6" transform="translate(0,0)"/>
<path d="" fill="#40D8FA" transform="translate(0,0)"/>
<path d="" fill="#5BA0FD" transform="translate(0,0)"/>
<path d="" fill="#6293FB" transform="translate(0,0)"/>
<path d="" fill="#6493FA" transform="translate(0,0)"/>
<path d="" fill="#668EF9" transform="translate(0,0)"/>
<path d="" fill="#6D8BF9" transform="translate(0,0)"/>
<path d="" fill="#6C85F5" transform="translate(0,0)"/>
<path d="" fill="#7281F7" transform="translate(0,0)"/>
<path d="" fill="#777AF1" transform="translate(0,0)"/>
<path d="" fill="#7C74ED" transform="translate(0,0)"/>
<path d="" fill="#7E72EB" transform="translate(0,0)"/>
<path d="" fill="#3FDAEE" transform="translate(0,0)"/>
<path d="" fill="#43DCEF" transform="translate(0,0)"/>
<path d="" fill="#40E2E4" transform="translate(0,0)"/>
<path d="" fill="#3EE0E1" transform="translate(0,0)"/>
<path d="" fill="#7E71F4" transform="translate(0,0)"/>
<path d="" fill="#8071FD" transform="translate(0,0)"/>
<path d="" fill="#7F71F9" transform="translate(0,0)"/>
<path d="" fill="#8C6BE7" transform="translate(0,0)"/>
<path d="" fill="#8E69EB" transform="translate(0,0)"/>
<path d="" fill="#51C6E7" transform="translate(0,0)"/>
<path d="" fill="#8D6CEB" transform="translate(0,0)"/>
<path d="" fill="#8D6BEA" transform="translate(0,0)"/>
<path d="" fill="#8E6BEC" transform="translate(0,0)"/>
<path d="" fill="#50C7EE" transform="translate(0,0)"/>
<path d="" fill="#4BC3ED" transform="translate(0,0)"/>
<path d="" fill="#906AEA" transform="translate(0,0)"/>
<path d="" fill="#6892F3" transform="translate(0,0)"/>
<path d="" fill="#6B91F4" transform="translate(0,0)"/>
<path d="" fill="#58B7F1" transform="translate(0,0)"/>
</svg>
